<?xml version="1.0" encoding="utf-8"?>
<!-- Generator: Adobe Illustrator 21.0.0, SVG Export Plug-In . SVG Version: 6.00 Build 0)  -->
<svg version="1.1" xmlns="http://www.w3.org/2000/svg" xmlns:xlink="http://www.w3.org/1999/xlink" x="0px" y="0px"
	 viewBox="0 0 1122 1122" style="enable-background:new 0 0 1122 1122;" xml:space="preserve">
<style type="text/css">
	.st0{fill:#FFFFFF;}
</style>
<g id="Bg">
	<rect class="st0" width="1122" height="1122"/>
</g>
<g id="Object">
	<path d="M677.5,387.1c9,2.2,18-3.3,20.2-12.3l19.7-80.5c2.2-9-3.3-18-12.3-20.2l-74.7-18.3c-9-2.2-18,3.3-20.2,12.3
		c-2.2,9,3.3,18,12.3,20.2l32.9,8.1l-227.1,165c-7.5,5.4-9.1,15.9-3.7,23.4c5.4,7.5,15.9,9.1,23.3,3.7l228.1-165.7l-10.8,44.2
		C663.1,375.8,668.6,384.9,677.5,387.1z"/>
	<rect x="294.9" y="665" width="142.2" height="133.7"/>
	<rect x="498.6" y="542.6" width="142.2" height="256.2"/>
	<polygon points="844.5,695.7 844.5,668.7 741.7,798.7 763,798.7 	"/>
	<polygon points="844.5,661.8 844.5,634.8 714.8,798.7 736.2,798.7 	"/>
	<polygon points="723.4,407.3 702.3,407.3 702.3,434 	"/>
	<polygon points="844.5,492 844.5,464.9 702.3,644.7 702.3,671.7 	"/>
	<polygon points="844.5,525.9 844.5,498.9 702.3,678.7 702.3,705.7 	"/>
	<polygon points="709.3,798.7 844.5,627.8 844.5,600.8 702.3,780.6 702.3,798.7 	"/>
	<polygon points="844.5,458 844.5,431 702.3,610.8 702.3,637.8 	"/>
	<polygon points="844.5,593.8 844.5,566.8 702.3,746.6 702.3,773.6 	"/>
	<polygon points="702.3,468 750.3,407.3 728.9,407.3 702.3,441 	"/>
	<polygon points="844.5,559.9 844.5,532.9 702.3,712.7 702.3,739.7 	"/>
	<polygon points="702.3,535.9 804,407.3 782.7,407.3 702.3,508.9 	"/>
	<polygon points="844.5,763.6 844.5,736.7 795.4,798.7 816.7,798.7 	"/>
	<polygon points="844.5,797.6 844.5,770.6 822.3,798.7 843.6,798.7 	"/>
	<polygon points="702.3,569.8 830.8,407.3 809.5,407.3 702.3,542.9 	"/>
	<polygon points="844.5,729.7 844.5,702.7 768.5,798.7 789.9,798.7 	"/>
	<polygon points="702.3,501.9 777.1,407.3 755.8,407.3 702.3,474.9 	"/>
	<polygon points="702.3,603.8 844.5,424 844.5,407.3 836.4,407.3 702.3,576.8 	"/>
	<polygon class="st0" points="702.3,441 728.9,407.3 723.4,407.3 702.3,434 	"/>
	<polygon class="st0" points="702.3,474.9 755.8,407.3 750.3,407.3 702.3,468 	"/>
	<polygon class="st0" points="702.3,508.9 782.7,407.3 777.1,407.3 702.3,501.9 	"/>
	<polygon class="st0" points="702.3,542.9 809.5,407.3 804,407.3 702.3,535.9 	"/>
	<polygon class="st0" points="702.3,576.8 836.4,407.3 830.8,407.3 702.3,569.8 	"/>
	<polygon class="st0" points="844.5,431 844.5,424 702.3,603.8 702.3,610.8 	"/>
	<polygon class="st0" points="844.5,464.9 844.5,458 702.3,637.8 702.3,644.7 	"/>
	<polygon class="st0" points="844.5,498.9 844.5,492 702.3,671.7 702.3,678.7 	"/>
	<polygon class="st0" points="844.5,532.9 844.5,525.9 702.3,705.7 702.3,712.7 	"/>
	<polygon class="st0" points="844.5,566.8 844.5,559.9 702.3,739.7 702.3,746.6 	"/>
	<polygon class="st0" points="844.5,600.8 844.5,593.8 702.3,773.6 702.3,780.6 	"/>
	<polygon class="st0" points="844.5,634.8 844.5,627.8 709.3,798.7 714.8,798.7 	"/>
	<polygon class="st0" points="844.5,668.7 844.5,661.8 736.2,798.7 741.7,798.7 	"/>
	<polygon class="st0" points="844.5,702.7 844.5,695.7 763,798.7 768.5,798.7 	"/>
	<polygon class="st0" points="844.5,736.7 844.5,729.7 789.9,798.7 795.4,798.7 	"/>
	<polygon class="st0" points="844.5,770.6 844.5,763.6 816.7,798.7 822.3,798.7 	"/>
	<polygon class="st0" points="844.5,797.6 843.6,798.7 844.5,798.7 	"/>
	<path d="M248.3,241.5v621.5c0,4.6,1.9,9.1,5.1,12.3c3.2,3.2,7.7,5.1,12.3,5.1h608.1v-34.8H283V241.5H248.3z"/>
</g>
</svg>
