<?xml version="1.0" encoding="utf-8"?>
<!-- Generator: Adobe Illustrator 21.0.0, SVG Export Plug-In . SVG Version: 6.00 Build 0)  -->
<svg version="1.1" id="Layer_1" xmlns="http://www.w3.org/2000/svg" xmlns:xlink="http://www.w3.org/1999/xlink" x="0px" y="0px"
	 viewBox="0 0 640 480" style="enable-background:new 0 0 640 480;" xml:space="preserve">
<g>
	<path id="XMLID_3_" d="M144.2,314.1c0,0,29.9,14.2,61.4,13.9c0.6,0,2.4,0,2.4,0s1.8,0,2.3,0c31.6,0.3,61.4-13.9,61.4-13.9
		c14.3,2.3,23.2-10.9,23.2-10.9l-3.9-31.6c-2.5-28.7-27.4-33.6-32.3-35.3c-5-1.6-23-6.9-25.5-12.9c-0.8-2-0.9-5.7-0.6-9.8
		c7.1-9,11.8-20.5,14.2-27.7c3.7,2.7,5.1-0.7,5.1-0.7c11.5-17.8,4.4-25,2.8-26.4c-1.6-1.3-3.1,1-3.1,1l-0.2,0.5
		c2.2-47.4-36-50.7-40.5-50.9c0.1,0-0.4,0.1-2.9,0.1c-2.6-0.1-3-0.1-3-0.1c-4.4,0.2-42.7,3.4-40.6,50.9l-0.2-0.5c0,0-1.6-2.3-3.1-1
		c-1.6,1.3-8.7,8.6,2.8,26.4c0,0,1.5,3.4,5.1,0.7c2.5,7.3,7.1,18.7,14.2,27.7c0.3,4.1,0.2,7.9-0.6,9.8c-2.5,5.9-20.5,11.2-25.5,12.9
		c-5,1.7-29.9,6.6-32.3,35.3l-3.9,31.6C121,303.3,129.9,316.5,144.2,314.1z"/>
	<path id="XMLID_1_" d="M256.2,269.1c0,0,29.9,14.2,61.4,13.9c0.6,0,2.4,0,2.4,0s1.8,0,2.3,0c31.6,0.3,61.4-13.9,61.4-13.9
		c14.3,2.3,23.2-10.9,23.2-10.9l-3.9-31.6c-2.5-28.7-27.4-33.6-32.3-35.3c-5-1.6-23-6.9-25.5-12.9c-0.8-2-0.9-5.7-0.6-9.8
		c7.1-9,11.8-20.5,14.2-27.7c3.7,2.7,5.1-0.7,5.1-0.7c11.5-17.8,4.4-25,2.8-26.4c-1.6-1.3-3.1,1-3.1,1l-0.2,0.5
		c2.2-47.4-36-50.7-40.5-50.9c0.1,0-0.4,0.1-2.9,0.1c-2.6-0.1-3-0.1-3-0.1c-4.4,0.2-42.7,3.4-40.6,50.9l-0.2-0.5c0,0-1.6-2.3-3.1-1
		c-1.6,1.3-8.7,8.6,2.8,26.4c0,0,1.5,3.4,5.1,0.7c2.5,7.3,7.1,18.7,14.2,27.7c0.3,4.1,0.2,7.9-0.6,9.8c-2.5,5.9-20.5,11.2-25.5,12.9
		c-5,1.7-29.9,6.6-32.3,35.3l-3.9,31.6C233,258.3,241.9,271.5,256.2,269.1z"/>
	<path id="XMLID_2_" d="M368.2,314.1c0,0,29.9,14.2,61.4,13.9c0.6,0,2.4,0,2.4,0s1.8,0,2.3,0c31.6,0.3,61.4-13.9,61.4-13.9
		c14.3,2.3,23.2-10.9,23.2-10.9l-3.9-31.6c-2.5-28.7-27.4-33.6-32.3-35.3c-5-1.6-23-6.9-25.5-12.9c-0.8-2-0.9-5.7-0.6-9.8
		c7.1-9,11.8-20.5,14.2-27.7c3.7,2.7,5.1-0.7,5.1-0.7c11.5-17.8,4.4-25,2.8-26.4c-1.6-1.3-3.1,1-3.1,1l-0.2,0.5
		c2.2-47.4-36-50.7-40.5-50.9c0.1,0-0.4,0.1-2.9,0.1c-2.6-0.1-3-0.1-3-0.1c-4.4,0.2-42.7,3.4-40.6,50.9l-0.2-0.5c0,0-1.6-2.3-3.1-1
		c-1.6,1.3-8.7,8.6,2.8,26.4c0,0,1.5,3.4,5.1,0.7c2.5,7.3,7.1,18.7,14.2,27.7c0.3,4.1,0.2,7.9-0.6,9.8c-2.5,5.9-20.5,11.2-25.5,12.9
		c-5,1.7-29.9,6.6-32.3,35.3l-3.9,31.6C345,303.3,353.9,316.5,368.2,314.1z"/>
</g>
</svg>
